<svg width="20" height="20" viewBox="0 0 20 20" fill="none" xmlns="http://www.w3.org/2000/svg">
<g clip-path="url(#clip0_1_32)">
<path d="M19.3744 8.74947C19.0294 8.74947 18.7494 9.02945 18.7494 9.37443V16.4515L13.7497 18.4514V11.8743C13.7497 11.5293 13.4697 11.2493 13.1248 11.2493C12.7798 11.2493 12.4998 11.5293 12.4998 11.8743V18.4501L7.50011 16.4502V6.54835L10.3962 7.70703C10.7124 7.83452 11.0799 7.67953 11.2086 7.3583C11.3374 7.03832 11.1811 6.67459 10.8599 6.54585L7.11888 5.04844C7.11888 5.04844 7.11888 5.04844 7.11763 5.04844L7.10764 5.04469C6.95889 4.9847 6.79266 4.9847 6.64391 5.04469L6.63267 5.04844C6.63267 5.04844 6.63267 5.04844 6.63142 5.04844L0.393055 7.54454C0.15682 7.63953 0.000579834 7.86827 0.000579834 8.1245V19.3738C0.000579834 19.5813 0.104323 19.775 0.275563 19.8913C0.380556 19.9625 0.501799 19.9988 0.625541 19.9988C0.704286 19.9988 0.783031 19.9838 0.858026 19.9538L6.87515 17.5477L12.881 19.95C12.881 19.95 12.881 19.95 12.8823 19.95L12.8935 19.955C13.0423 20.015 13.2085 20.015 13.3572 19.955L13.3685 19.95C13.3685 19.95 13.3685 19.95 13.3697 19.95L19.6081 17.4552C19.8431 17.3589 19.9993 17.1302 19.9993 16.874V9.37443C19.9993 9.02945 19.7193 8.74947 19.3744 8.74947ZM6.25019 16.4502L1.2505 18.4501V8.54698L6.25019 6.5471V16.4502Z" fill="#A4B0BE"/>
<path d="M15.6246 2.49985C14.5909 2.49985 13.7497 3.34104 13.7497 4.37473C13.7497 5.40842 14.5909 6.24961 15.6246 6.24961C16.6583 6.24961 17.4995 5.40842 17.4995 4.37473C17.4995 3.34104 16.6583 2.49985 15.6246 2.49985ZM15.6246 4.99969C15.2796 4.99969 14.9996 4.71971 14.9996 4.37473C14.9996 4.02975 15.2796 3.74977 15.6246 3.74977C15.9696 3.74977 16.2495 4.02975 16.2495 4.37473C16.2495 4.71971 15.9696 4.99969 15.6246 4.99969Z" fill="#A4B0BE"/>
<path d="M15.6246 0C13.2122 0 11.2498 1.96238 11.2498 4.37473C11.2498 6.61959 14.7596 10.5956 15.1596 11.0418C15.2783 11.1731 15.4471 11.2493 15.6246 11.2493C15.8021 11.2493 15.9708 11.1731 16.0895 11.0418C16.4895 10.5956 19.9993 6.61959 19.9993 4.37473C19.9993 1.96238 18.0369 0 15.6246 0ZM15.6246 9.67065C14.2597 8.052 12.4998 5.56715 12.4998 4.37473C12.4998 2.65233 13.9022 1.24992 15.6246 1.24992C17.347 1.24992 18.7494 2.65233 18.7494 4.37473C18.7494 5.5659 16.9895 8.052 15.6246 9.67065Z" fill="#A4B0BE"/>
</g>
<defs>
<clipPath id="clip0_1_32">
<rect width="20" height="20" fill="white"/>
</clipPath>
</defs>
</svg>
