<svg width="15" height="15" viewBox="0 0 15 15" fill="none" xmlns="http://www.w3.org/2000/svg">
<path d="M6.44909 9.05093C6.61763 9.23179 6.82086 9.37686 7.04668 9.47748C7.2725 9.5781 7.51626 9.6322 7.76344 9.63656C8.01062 9.64092 8.25615 9.59545 8.48538 9.50286C8.7146 9.41028 8.92283 9.27247 9.09764 9.09766C9.27245 8.92285 9.41026 8.71462 9.50285 8.48539C9.59543 8.25617 9.6409 8.01064 9.63654 7.76346C9.63218 7.51628 9.57808 7.27251 9.47746 7.0467C9.37685 6.82088 9.23178 6.61764 9.05091 6.44911M4.105 11.395C5.15396 12.1946 6.43123 12.6375 7.75 12.6591C12.0455 12.6591 14.5 7.75002 14.5 7.75002C13.7367 6.32754 12.678 5.08475 11.395 4.10502L4.105 11.395ZM9.03864 2.9882C8.61625 2.88933 8.1838 2.83991 7.75 2.84093C3.45455 2.84093 1 7.75002 1 7.75002C1.37249 8.44687 1.81672 9.10292 2.32545 9.70752L9.03864 2.9882Z" stroke="black" stroke-linecap="round" stroke-linejoin="round"/>
<path d="M14.5 1L1 14.5" stroke="black" stroke-linecap="round" stroke-linejoin="round"/>
</svg>
