<svg width="16" height="17" viewBox="0 0 16 17" fill="none" xmlns="http://www.w3.org/2000/svg">
<path d="M15.9915 8.65898C15.9915 7.9625 15.9371 7.45425 15.8193 6.92719H8.1593V10.0708H12.6555C12.5649 10.852 12.0754 12.0285 10.9876 12.819L10.9723 12.9243L13.3943 14.8723L13.5621 14.8897C15.1031 13.412 15.9915 11.2379 15.9915 8.65898Z" fill="#4285F4"/>
<path d="M8.15943 16.9417C10.3622 16.9417 12.2115 16.1887 13.5622 14.8898L10.9877 12.8191C10.2988 13.318 9.37412 13.6662 8.15943 13.6662C6.00196 13.6662 4.17083 12.1886 3.51808 10.1462L3.4224 10.1546L0.904028 12.1782L0.871094 12.2733C2.21271 15.0404 4.9685 16.9417 8.15943 16.9417Z" fill="#34A853"/>
<path d="M3.51805 10.1462C3.34582 9.61912 3.24614 9.05435 3.24614 8.47084C3.24614 7.88726 3.34582 7.32256 3.50899 6.7955L3.50443 6.68324L0.954506 4.62715L0.871077 4.66835C0.318134 5.81663 0.000854492 7.1061 0.000854492 8.47084C0.000854492 9.83558 0.318134 11.125 0.871077 12.2733L3.51805 10.1462Z" fill="#FBBC05"/>
<path d="M8.1594 3.27539C9.69137 3.27539 10.7248 3.96246 11.314 4.53663L13.6165 2.20244C12.2024 0.837702 10.3622 3.05176e-05 8.1594 3.05176e-05C4.96848 3.05176e-05 2.21271 1.90124 0.871094 4.66835L3.50901 6.79549C4.17082 4.75309 6.00194 3.27539 8.1594 3.27539Z" fill="#EB4335"/>
</svg>
