<svg width="20" height="20" viewBox="0 0 20 20" fill="none" xmlns="http://www.w3.org/2000/svg">
<path fill-rule="evenodd" clip-rule="evenodd" d="M0 9.39926C0 4.20819 4.30323 0 9.61154 0C14.9198 0 19.2231 4.20819 19.2231 9.39926C19.2231 14.5903 14.9198 18.7985 9.61154 18.7985C4.30323 18.7985 0 14.5903 0 9.39926ZM17.7426 9.39926C17.7426 5.00776 14.1022 1.44774 9.61154 1.44774C5.12086 1.44774 1.48044 5.00776 1.48044 9.39926C1.48044 13.7908 5.12086 17.3508 9.61154 17.3508C14.1022 17.3508 17.7426 13.7908 17.7426 9.39926Z" fill="#A4B0BE"/>
<path d="M15.2576 15.3725C15.5201 15.1152 15.9313 15.0913 16.2213 15.3012L16.3045 15.3712L19.7825 18.7636C20.072 19.0459 20.0726 19.5043 19.7839 19.7873C19.5214 20.0446 19.1102 20.0685 18.8202 19.8586L18.7371 19.7887L15.259 16.3962C14.9695 16.1139 14.9689 15.6556 15.2576 15.3725Z" fill="#A4B0BE"/>
</svg>
