<svg width="16" height="16" viewBox="0 0 16 16" fill="none" xmlns="http://www.w3.org/2000/svg">
<path fill-rule="evenodd" clip-rule="evenodd" d="M7.68923 0C3.44259 0 0 3.36655 0 7.51941C0 11.6723 3.44259 15.0388 7.68923 15.0388C9.50552 15.0388 11.1747 14.423 12.4904 13.3932L14.9896 15.8309L15.0561 15.8869C15.2882 16.0548 15.6171 16.0357 15.8271 15.8298C16.0581 15.6034 16.0576 15.2367 15.826 15.0108L13.3562 12.6018C14.612 11.2635 15.3785 9.47898 15.3785 7.51941C15.3785 3.36655 11.9359 0 7.68923 0ZM7.68921 1.1582C11.2818 1.1582 14.1941 4.00622 14.1941 7.51942C14.1941 11.0326 11.2818 13.8806 7.68921 13.8806C4.09666 13.8806 1.18433 11.0326 1.18433 7.51942C1.18433 4.00622 4.09666 1.1582 7.68921 1.1582Z" fill="#A4B0BE"/>
</svg>
