<svg width="15" height="15" viewBox="0 0 15 15" fill="none" xmlns="http://www.w3.org/2000/svg">
<path d="M11.204 5.60112C11.7579 5.60112 12.2994 5.43687 12.7599 5.12914C13.2205 4.82141 13.5794 4.38403 13.7914 3.87229C14.0034 3.36056 14.0588 2.79746 13.9508 2.2542C13.8427 1.71094 13.576 1.21193 13.1843 0.820267C12.7926 0.428601 12.2936 0.161874 11.7504 0.0538133C11.2071 -0.054247 10.644 0.00121343 10.1323 0.213181C9.62055 0.425149 9.18316 0.784104 8.87543 1.24465C8.56771 1.7052 8.40345 2.24666 8.40345 2.80056C8.40345 3.54332 8.69851 4.25565 9.22372 4.78086C9.74893 5.30607 10.4613 5.60112 11.204 5.60112ZM11.204 1.40028C11.481 1.40028 11.7517 1.48241 11.982 1.63627C12.2122 1.79014 12.3917 2.00883 12.4977 2.2647C12.6037 2.52057 12.6314 2.80212 12.5774 3.07374C12.5234 3.34537 12.39 3.59488 12.1942 3.79071C11.9983 3.98654 11.7488 4.11991 11.4772 4.17394C11.2056 4.22797 10.924 4.20024 10.6682 4.09425C10.4123 3.98827 10.1936 3.80879 10.0397 3.57852C9.88586 3.34824 9.80374 3.07751 9.80374 2.80056C9.80374 2.42919 9.95127 2.07302 10.2139 1.81041C10.4765 1.54781 10.8326 1.40028 11.204 1.40028ZM10.3989 7.33047C10.3361 7.22915 10.2484 7.14555 10.1443 7.08756C10.0402 7.02958 9.92293 6.99915 9.80374 6.99915C9.68454 6.99915 9.56732 7.02958 9.46317 7.08756C9.35903 7.14555 9.27141 7.22915 9.20862 7.33047L8.50848 8.4717L6.20501 4.55091C6.14302 4.44644 6.05491 4.35989 5.94934 4.29978C5.84377 4.23966 5.72438 4.20805 5.60289 4.20805C5.48141 4.20805 5.36201 4.23966 5.25645 4.29978C5.15088 4.35989 5.06277 4.44644 5.00077 4.55091L0.0997899 12.9526C0.0385154 13.0587 0.00616845 13.1791 0.00598225 13.3016C0.00579606 13.4242 0.0377771 13.5446 0.0987288 13.6509C0.15968 13.7572 0.247468 13.8457 0.353317 13.9074C0.459166 13.9692 0.579368 14.0021 0.701911 14.0028H13.3044C13.4295 14.0031 13.5524 13.9698 13.6603 13.9065C13.7682 13.8431 13.8571 13.752 13.9179 13.6427C13.9786 13.5333 14.009 13.4097 14.0057 13.2846C14.0025 13.1596 13.9659 13.0377 13.8996 12.9316L10.3989 7.33047ZM5.91796 12.6025H1.92015L5.60289 6.30127L7.66131 9.80197L6.78613 11.2022L5.91796 12.6025ZM7.56329 12.6025L8.6065 10.9432L9.1036 10.201L9.80374 9.02481L12.0442 12.6025H7.56329Z" fill="#5352ED"/>
</svg>
